<svg data-v-423bf9ae="" xmlns="http://www.w3.org/2000/svg" viewBox="0 0 247.23507917174177 60" class="font"><!----><!----><!----><g data-v-423bf9ae="" id="e8611451-7192-4ffe-be3f-a7cdb4bd8be3" fill="black" transform="matrix(4.677222728729248,0,0,4.677222728729248,-5.152249813079834,-15.438488006591797)"><path d="M4.63 3.88L4.63 3.88L4.63 3.88Q5.85 3.88 6.47 4.50L6.47 4.50L6.47 4.50Q7.08 5.12 7.10 6.17L7.10 6.17L6.12 6.17L6.12 6.17Q6.09 5.56 5.69 5.22L5.69 5.22L5.69 5.22Q5.29 4.89 4.51 4.89L4.51 4.89L4.51 4.89Q3.74 4.89 3.28 5.27L3.28 5.27L3.28 5.27Q2.81 5.66 2.77 6.20L2.77 6.20L2.77 6.20Q2.72 6.73 2.95 7.01L2.95 7.01L2.95 7.01Q3.19 7.29 3.77 7.50L3.77 7.50L5.35 8.13L5.35 8.13Q6.17 8.46 6.62 9.02L6.62 9.02L6.62 9.02Q7.06 9.58 6.97 10.50L6.97 10.50L6.97 10.50Q6.89 11.58 6.05 12.28L6.05 12.28L6.05 12.28Q5.18 12.99 3.78 12.99L3.78 12.99L3.78 12.99Q2.55 12.99 1.81 12.28L1.81 12.28L1.81 12.28Q1.02 11.52 1.11 10.19L1.11 10.19L2.07 10.19L2.07 10.19Q1.99 11.07 2.53 11.55L2.53 11.55L2.53 11.55Q3.02 11.98 3.88 11.98L3.88 11.98L3.88 11.98Q4.73 11.98 5.28 11.56L5.28 11.56L5.28 11.56Q5.82 11.13 5.88 10.55L5.88 10.55L5.88 10.55Q5.94 9.97 5.66 9.63L5.66 9.63L5.66 9.63Q5.39 9.30 4.80 9.07L4.80 9.07L3.46 8.50L3.46 8.50Q2.51 8.13 2.05 7.63L2.05 7.63L2.05 7.63Q1.60 7.13 1.68 6.20L1.68 6.20L1.68 6.20Q1.86 4.58 3.44 4.05L3.44 4.05L3.44 4.05Q3.98 3.88 4.63 3.88ZM11.98 11.86L12.05 12.64L12.05 12.64Q11.33 12.99 10.65 12.99L10.65 12.99L10.65 12.99Q9.98 12.99 9.53 12.53L9.53 12.53L9.53 12.53Q9.09 12.07 9.18 11.10L9.18 11.10L9.56 6.99L8.58 6.99L8.68 6.15L9.63 6.15L9.81 4.28L10.81 4.28L10.63 6.15L12.52 6.15L12.43 6.99L10.54 6.99L10.16 11.09L10.16 11.09Q10.09 11.61 10.30 11.86L10.30 11.86L10.30 11.86Q10.50 12.11 10.93 12.11L10.93 12.11L10.93 12.11Q11.37 12.11 11.98 11.86L11.98 11.86ZM17.67 9.35L17.75 8.50L17.75 8.50Q17.84 7.59 17.54 7.20L17.54 7.20L17.54 7.20Q17.23 6.80 16.59 6.80L16.59 6.80L16.59 6.80Q15.95 6.80 15.52 7.08L15.52 7.08L15.52 7.08Q15.09 7.36 15.04 7.99L15.04 7.99L13.93 7.99L13.93 7.99Q14.04 6.90 14.78 6.44L14.78 6.44L14.78 6.44Q15.53 5.98 16.60 5.98L16.60 5.98L16.60 5.98Q18.30 5.98 18.66 7.38L18.66 7.38L18.66 7.38Q18.79 7.85 18.73 8.53L18.73 8.53L18.33 12.84L17.49 12.84L17.49 11.72L17.49 11.72Q16.80 12.99 15.34 12.99L15.34 12.99L15.34 12.99Q14.45 12.99 13.90 12.45L13.90 12.45L13.90 12.45Q13.40 11.94 13.40 11.28L13.40 11.28L13.40 11.28Q13.40 10.63 13.60 10.22L13.60 10.22L13.60 10.22Q13.80 9.81 14.14 9.53L14.14 9.53L14.14 9.53Q14.84 8.99 15.83 8.99L15.83 8.99L15.83 8.99Q16.83 8.99 17.67 9.35L17.67 9.35ZM17.58 10.18L17.60 10.05L17.60 10.05Q16.73 9.77 16.04 9.77L16.04 9.77L16.04 9.77Q15.34 9.77 14.90 10.09L14.90 10.09L14.90 10.09Q14.46 10.40 14.46 11.12L14.46 11.12L14.46 11.12Q14.46 11.56 14.72 11.85L14.72 11.85L14.72 11.85Q14.98 12.14 15.64 12.14L15.64 12.14L15.64 12.14Q16.35 12.14 16.91 11.62L16.91 11.62L16.91 11.62Q17.53 11.06 17.58 10.18L17.58 10.18ZM24.58 6.15L24.43 7.22L24.43 7.22Q24.04 7.08 23.67 7.08L23.67 7.08L23.67 7.08Q22.88 7.08 22.47 7.82L22.47 7.82L22.47 7.82Q22.06 8.55 21.94 9.81L21.94 9.81L21.63 9.81L21.63 9.81Q21.77 8.30 22.16 7.41L22.16 7.41L21.66 12.84L20.66 12.84L21.29 6.13L22.29 6.13L22.16 7.41L22.16 7.41Q22.76 6.02 23.90 6.02L23.90 6.02L23.90 6.02Q24.26 6.02 24.58 6.15L24.58 6.15ZM26.92 6.15L26.94 7.17L26.94 7.17Q27.68 5.98 28.90 5.98L28.90 5.98L28.90 5.98Q29.99 5.98 30.67 6.90L30.67 6.90L30.67 6.90Q31.39 7.90 31.25 9.48L31.25 9.48L31.25 9.48Q31.08 11.07 30.17 12.05L30.17 12.05L30.17 12.05Q29.32 12.99 28.17 12.99L28.17 12.99L28.17 12.99Q27.02 12.99 26.54 12.03L26.54 12.03L26.15 16.13L25.16 16.13L26.11 6.15L26.92 6.15ZM26.71 10.12L26.73 10.12L26.73 10.12Q26.64 10.99 27.09 11.52L27.09 11.52L27.09 11.52Q27.50 12.01 28.17 12.01L28.17 12.01L28.17 12.01Q28.91 12.01 29.47 11.37L29.47 11.37L29.47 11.37Q30.09 10.68 30.21 9.49L30.21 9.49L30.21 9.49Q30.34 8.29 29.88 7.62L29.88 7.62L29.88 7.62Q29.43 6.96 28.67 6.96L28.67 6.96L28.67 6.96Q27.97 6.96 27.47 7.46L27.47 7.46L27.47 7.46Q26.92 8.01 26.84 8.95L26.84 8.95L26.82 8.95L26.71 10.12ZM32.97 12.84L33.87 3.30L34.86 3.30L33.96 12.84L32.97 12.84ZM40.59 12.84L40.71 11.51L40.71 11.51Q39.97 12.96 38.57 12.96L38.57 12.96L38.57 12.96Q37.55 12.96 36.99 12.33L36.99 12.33L36.99 12.33Q36.43 11.70 36.54 10.39L36.54 10.39L36.95 6.13L37.94 6.13L37.55 10.30L37.55 10.30Q37.38 12.00 38.81 12.00L38.81 12.00L38.81 12.00Q39.65 12.00 40.24 11.27L40.24 11.27L40.24 11.27Q40.80 10.56 40.91 9.39L40.91 9.39L41.22 6.13L42.21 6.13L41.58 12.84L40.59 12.84ZM45.60 6.15L45.58 7.45L45.58 7.45Q46.34 5.98 47.75 5.98L47.75 5.98L47.75 5.98Q48.54 5.98 49.03 6.41L49.03 6.41L49.03 6.41Q49.52 6.83 49.69 7.59L49.69 7.59L49.69 7.59Q50.40 5.98 51.94 5.98L51.94 5.98L51.94 5.98Q53.02 5.98 53.54 6.76L53.54 6.76L53.54 6.76Q54.07 7.55 53.93 8.90L53.93 8.90L53.56 12.84L52.58 12.84L52.95 8.90L52.95 8.90Q53.05 7.94 52.68 7.45L52.68 7.45L52.68 7.45Q52.32 6.96 51.55 6.96L51.55 6.96L51.55 6.96Q50.78 6.96 50.29 7.66L50.29 7.66L50.29 7.66Q49.80 8.36 49.69 9.59L49.69 9.59L49.67 9.59L49.38 12.84L48.40 12.84L48.76 8.90L48.76 8.90Q48.86 7.94 48.50 7.45L48.50 7.45L48.50 7.45Q48.13 6.96 47.36 6.96L47.36 6.96L47.36 6.96Q46.59 6.96 46.05 7.68L46.05 7.68L46.05 7.68Q45.51 8.40 45.40 9.67L45.40 9.67L45.11 12.84L44.11 12.84L44.74 6.15L45.60 6.15Z"></path></g><!----><!----></svg>